<svg data-v-d3f97b9e="" xmlns="http://www.w3.org/2000/svg" viewBox="0 0 632 90"><!----><!----><linearGradient data-v-d3f97b9e="" gradientTransform="rotate(25)" id="26360596-3e6c-46e8-beea-ad421a3c62bf" x1="0%" y1="0%" x2="100%" y2="0%"><stop data-v-d3f97b9e="" offset="0%" style="stop-color: rgb(254, 183, 0); stop-opacity: 1;"></stop><stop data-v-d3f97b9e="" offset="100%" style="stop-color: rgb(255, 185, 0); stop-opacity: 1;"></stop></linearGradient><g data-v-d3f97b9e="" id="2d57303a-0492-4da1-bf3d-aa31984ec2c3" fill="url(#26360596-3e6c-46e8-beea-ad421a3c62bf)" transform="matrix(4.731861440741736,0,0,4.731861440741736,72.65462441598356,7.050471748412313)"><path d="M1.13 2.21L1.13 11.48L7.24 11.48L7.24 10.47L2.18 10.47L2.18 2.21ZM8.37 11.48L9.42 11.48L9.42 4.48L8.37 4.48ZM8.33 1.93L8.33 3.30L9.46 3.30L9.46 1.93ZM16.70 4.48L16.70 5.60C16.18 4.84 15.36 4.37 14.20 4.37C12.15 4.37 10.81 5.92 10.81 7.92C10.81 9.93 12.15 11.48 14.20 11.48C15.36 11.48 16.18 10.99 16.70 10.23L16.70 11.20C16.70 12.64 16.00 13.41 14.39 13.41C13.33 13.41 12.63 13.01 12.35 12.32L11.19 12.32C11.58 13.54 12.68 14.36 14.45 14.36C16.55 14.36 17.75 13.27 17.75 11.27L17.75 4.48ZM14.34 10.53C12.78 10.53 11.86 9.37 11.86 7.92C11.86 6.48 12.78 5.32 14.34 5.32C15.86 5.32 16.76 6.48 16.76 7.92C16.76 9.37 15.86 10.53 14.34 10.53ZM19.57 1.68L19.57 11.48L20.62 11.48L20.62 7.45C20.62 6.19 21.57 5.32 22.74 5.32C23.88 5.32 24.70 6.16 24.70 7.43L24.70 11.48L25.75 11.48L25.75 7.41C25.75 5.42 24.39 4.37 22.95 4.37C21.81 4.37 21.13 4.90 20.62 5.57L20.62 1.68ZM29.13 11.48L29.13 5.40L30.74 5.40L30.74 4.48L29.13 4.48L29.13 1.97L28.08 1.97L28.08 4.48L26.66 4.48L26.66 5.40L28.08 5.40L28.08 11.48ZM34.33 4.37C32.52 4.37 31.58 5.11 31.58 6.37C31.58 8.93 36.25 7.84 36.25 9.59C36.25 10.54 35.03 10.70 34.45 10.70C33.10 10.70 32.56 10.00 32.49 9.28L31.40 9.28C31.47 10.51 32.49 11.59 34.44 11.59C36.18 11.59 37.30 10.85 37.30 9.49C37.30 6.86 32.63 7.95 32.63 6.27C32.63 5.59 33.21 5.26 34.30 5.26C35.48 5.26 35.92 5.75 36.01 6.36L37.07 6.36C36.95 5.33 36.18 4.37 34.33 4.37ZM45.96 2.10C43.15 2.10 41.26 4.21 41.26 6.85C41.26 9.48 43.15 11.59 45.96 11.59C48.78 11.59 50.67 9.48 50.67 6.85C50.67 4.21 48.78 2.10 45.96 2.10ZM45.96 10.57C43.71 10.57 42.31 8.93 42.31 6.85C42.31 4.76 43.71 3.12 45.96 3.12C48.22 3.12 49.62 4.76 49.62 6.85C49.62 8.93 48.22 10.57 45.96 10.57ZM52.12 4.48L52.12 11.48L53.17 11.48L53.17 7.45C53.17 6.19 54.12 5.32 55.29 5.32C56.43 5.32 57.25 6.16 57.25 7.43L57.25 11.48L58.30 11.48L58.30 7.41C58.30 5.42 56.94 4.37 55.50 4.37C54.36 4.37 53.68 4.90 53.17 5.57L53.17 4.48ZM69.94 3.22L69.94 2.21L63.25 2.21L63.25 11.48L64.30 11.48L64.30 7.46L69.33 7.46L69.33 6.44L64.30 6.44L64.30 3.22ZM71.12 11.48L72.17 11.48L72.17 4.48L71.12 4.48ZM71.08 1.93L71.08 3.30L72.21 3.30L72.21 1.93ZM73.99 4.48L73.99 11.48L75.04 11.48L75.04 7.45C75.04 6.19 75.99 5.32 77.15 5.32C78.30 5.32 79.11 6.16 79.11 7.43L79.11 11.48L80.16 11.48L80.16 7.41C80.16 5.42 78.81 4.37 77.36 4.37C76.23 4.37 75.54 4.90 75.04 5.57L75.04 4.48ZM84.87 4.37C82.82 4.37 81.48 5.98 81.48 7.98C81.48 9.98 82.82 11.59 84.87 11.59C86.03 11.59 86.86 11.12 87.37 10.36L87.37 11.48L88.42 11.48L88.42 4.48L87.37 4.48L87.37 5.61C86.86 4.86 86.03 4.37 84.87 4.37ZM85.01 10.64C83.45 10.64 82.53 9.42 82.53 7.98C82.53 6.54 83.45 5.32 85.01 5.32C86.56 5.32 87.43 6.54 87.43 7.98C87.43 9.42 86.56 10.64 85.01 10.64ZM90.24 4.48L90.24 11.48L91.29 11.48L91.29 7.45C91.29 6.19 92.25 5.32 93.41 5.32C94.56 5.32 95.37 6.16 95.37 7.43L95.37 11.48L96.42 11.48L96.42 7.41C96.42 5.42 95.06 4.37 93.62 4.37C92.48 4.37 91.80 4.90 91.29 5.57L91.29 4.48ZM101.32 10.64C99.76 10.64 98.78 9.42 98.78 7.98C98.78 6.54 99.76 5.32 101.32 5.32C102.31 5.32 103.03 5.88 103.35 6.68L104.48 6.68C104.08 5.32 102.83 4.37 101.18 4.37C99.08 4.37 97.73 5.98 97.73 7.98C97.73 9.98 99.08 11.59 101.18 11.59C102.83 11.59 104.08 10.64 104.48 9.28L103.35 9.28C103.03 10.08 102.31 10.64 101.32 10.64ZM105.78 11.48L106.83 11.48L106.83 4.48L105.78 4.48ZM105.74 1.93L105.74 3.30L106.88 3.30L106.88 1.93ZM111.61 4.37C109.56 4.37 108.22 5.98 108.22 7.98C108.22 9.98 109.56 11.59 111.61 11.59C112.77 11.59 113.60 11.12 114.11 10.36L114.11 11.48L115.16 11.48L115.16 4.48L114.11 4.48L114.11 5.61C113.60 4.86 112.77 4.37 111.61 4.37ZM111.75 10.64C110.19 10.64 109.27 9.42 109.27 7.98C109.27 6.54 110.19 5.32 111.75 5.32C113.30 5.32 114.17 6.54 114.17 7.98C114.17 9.42 113.30 10.64 111.75 10.64ZM118.03 1.68L116.98 1.68L116.98 11.48L118.03 11.48Z"></path></g><!----><g data-v-d3f97b9e="" id="f699cbf9-1f8a-4022-a9da-35b0ca158b2d" transform="matrix(1.1151588119674474,0,0,1.1151588119674474,-21.273825153693487,-4.535258185700343)" stroke="none" fill="#FFBA00"><path d="M45.744 4.648c-14.363 0-26.006 9.708-26.006 26.622 0 12.626 6.792 19.35 12.416 28.051h27.179C64.957 50.62 71.75 43.897 71.75 31.27 71.749 14.356 60.106 4.648 45.744 4.648zm13.117 47.256c-.651.926-1.315 1.873-1.978 2.844h-2.119l-.799-16.89-.798 16.89H36.856l-.737-15.608c.499-.435.979-.886 1.457-1.338.309-.302.617-.602.924-.906.101.276.202.553.311.827l.582 1.489c.188.5.405.985.607 1.478l.616 1.474.448 1.07.868-.823c.833-.791 1.674-1.572 2.501-2.37a132.18 132.18 0 0 0 1.949-1.942c.59.466 1.18.935 1.787 1.38l1.201.899 1.223.875.42.302.237-.375c.339-.537.661-1.087.989-1.632.319-.553.639-1.105.934-1.674-.466.441-.909.899-1.352 1.359-.317.338-.633.679-.946 1.021l-.758-.756-1.084-1.038c-.718-.699-1.468-1.359-2.204-2.035l-.508-.467-.561.501a107.65 107.65 0 0 0-2.517 2.352c-.557.54-1.106 1.087-1.656 1.633l-.198-.393c-.244-.474-.471-.954-.728-1.421l-.751-1.412c-.248-.471-.519-.932-.778-1.398l-.385-.696-.424.589c-.406.565-.788 1.151-1.18 1.729-.35.539-.697 1.08-1.027 1.635l-.058-1.217-.798 16.89h-.657a266.379 266.379 0 0 0-1.977-2.844c-4.462-6.357-8.315-11.847-8.315-20.635 0-6.778 2.151-12.436 6.22-16.363 3.8-3.667 9.203-5.687 15.214-5.687 6.01 0 11.413 2.019 15.213 5.687 4.069 3.927 6.22 9.584 6.22 16.363-.001 8.786-3.855 14.276-8.317 20.633zM34.078 64.539c.479 2.018 1.994 2.453 2.313 4.641.183 1.256-.393 2.055-.182 4.002.09.828 1.684 2.961 1.754 3.643.191 1.846 0 3.215 0 3.215.048 1.707 2.899 2.598 4.023 3.027.951.365 1.912 2.287 3.693 2.287 1.812 0 2.84-1.924 3.822-2.287 1.13-.416 3.607-1.455 3.988-3.104.167-.721.079-1.283.263-3.066.079-.773 1.594-2.814 1.732-3.775.412-2.852-.548-2.619-.232-4.514.229-1.369 1.779-2.434 2.07-3.699.251-1.1.526-2.121.826-3.016H33.336c.266.795.513 1.687.742 2.646z"></path></g><!----></svg>